<mxfile host="app.diagrams.net" modified="2024-05-19T14:33:44.110Z" agent="Mozilla/5.0 (X11; Linux x86_64) AppleWebKit/537.36 (KHTML, like Gecko) Chrome/124.0.0.0 Safari/537.36" etag="QKf_9tBX3R5cwxPkCfLP" version="24.4.0" type="device">
  <diagram name="Page-1" id="2v6KWbIUgOUWCKvC6Wy_">
    <mxGraphModel dx="988" dy="550" grid="1" gridSize="10" guides="1" tooltips="1" connect="1" arrows="1" fold="1" page="1" pageScale="1" pageWidth="850" pageHeight="1100" math="0" shadow="0">
      <root>
        <mxCell id="0" />
        <mxCell id="1" parent="0" />
        <mxCell id="JF9ftjXbP2cAIOq0KpQJ-4" style="edgeStyle=orthogonalEdgeStyle;rounded=0;orthogonalLoop=1;jettySize=auto;html=1;" edge="1" parent="1" source="JF9ftjXbP2cAIOq0KpQJ-1">
          <mxGeometry relative="1" as="geometry">
            <mxPoint x="435" y="220" as="targetPoint" />
          </mxGeometry>
        </mxCell>
        <mxCell id="JF9ftjXbP2cAIOq0KpQJ-5" value="PRF(&quot;master secret&quot;)" style="edgeLabel;html=1;align=center;verticalAlign=middle;resizable=0;points=[];" vertex="1" connectable="0" parent="JF9ftjXbP2cAIOq0KpQJ-4">
          <mxGeometry x="-0.2269" y="-1" relative="1" as="geometry">
            <mxPoint as="offset" />
          </mxGeometry>
        </mxCell>
        <mxCell id="JF9ftjXbP2cAIOq0KpQJ-1" value="Premaster key" style="rounded=0;whiteSpace=wrap;html=1;" vertex="1" parent="1">
          <mxGeometry x="340" y="130" width="190" height="40" as="geometry" />
        </mxCell>
        <mxCell id="JF9ftjXbP2cAIOq0KpQJ-2" value="" style="endArrow=classic;html=1;rounded=0;entryX=0.5;entryY=0;entryDx=0;entryDy=0;" edge="1" parent="1" target="JF9ftjXbP2cAIOq0KpQJ-1">
          <mxGeometry width="50" height="50" relative="1" as="geometry">
            <mxPoint x="435" y="70" as="sourcePoint" />
            <mxPoint x="710" y="460" as="targetPoint" />
          </mxGeometry>
        </mxCell>
        <mxCell id="JF9ftjXbP2cAIOq0KpQJ-3" value="Hasil perhitungan&lt;br&gt;ECDH" style="edgeLabel;html=1;align=center;verticalAlign=middle;resizable=0;points=[];" vertex="1" connectable="0" parent="JF9ftjXbP2cAIOq0KpQJ-2">
          <mxGeometry x="-0.3159" y="2" relative="1" as="geometry">
            <mxPoint x="-2" y="9" as="offset" />
          </mxGeometry>
        </mxCell>
        <mxCell id="JF9ftjXbP2cAIOq0KpQJ-6" value="Master key" style="rounded=0;whiteSpace=wrap;html=1;" vertex="1" parent="1">
          <mxGeometry x="340" y="220" width="190" height="40" as="geometry" />
        </mxCell>
        <mxCell id="JF9ftjXbP2cAIOq0KpQJ-7" value="Key Expansion" style="rounded=0;whiteSpace=wrap;html=1;" vertex="1" parent="1">
          <mxGeometry x="220" y="300" width="400" height="40" as="geometry" />
        </mxCell>
        <mxCell id="JF9ftjXbP2cAIOq0KpQJ-56" style="edgeStyle=orthogonalEdgeStyle;rounded=0;orthogonalLoop=1;jettySize=auto;html=1;entryX=0.5;entryY=0;entryDx=0;entryDy=0;" edge="1" parent="1" source="JF9ftjXbP2cAIOq0KpQJ-10" target="JF9ftjXbP2cAIOq0KpQJ-17">
          <mxGeometry relative="1" as="geometry" />
        </mxCell>
        <mxCell id="JF9ftjXbP2cAIOq0KpQJ-57" value="vec" style="edgeLabel;html=1;align=center;verticalAlign=middle;resizable=0;points=[];" vertex="1" connectable="0" parent="JF9ftjXbP2cAIOq0KpQJ-56">
          <mxGeometry x="-0.6335" relative="1" as="geometry">
            <mxPoint y="4" as="offset" />
          </mxGeometry>
        </mxCell>
        <mxCell id="JF9ftjXbP2cAIOq0KpQJ-10" value="E&lt;sub&gt;client&lt;/sub&gt;" style="rounded=0;whiteSpace=wrap;html=1;" vertex="1" parent="1">
          <mxGeometry x="220" y="367" width="70" height="30" as="geometry" />
        </mxCell>
        <mxCell id="JF9ftjXbP2cAIOq0KpQJ-11" value="E&lt;sub&gt;server&lt;/sub&gt;" style="rounded=0;whiteSpace=wrap;html=1;" vertex="1" parent="1">
          <mxGeometry x="290" y="367" width="65" height="30" as="geometry" />
        </mxCell>
        <mxCell id="JF9ftjXbP2cAIOq0KpQJ-12" value="MAC&lt;sub&gt;client&lt;/sub&gt;" style="rounded=0;whiteSpace=wrap;html=1;" vertex="1" parent="1">
          <mxGeometry x="355" y="367" width="65" height="30" as="geometry" />
        </mxCell>
        <mxCell id="JF9ftjXbP2cAIOq0KpQJ-13" value="MAC&lt;sub&gt;server&lt;/sub&gt;" style="rounded=0;whiteSpace=wrap;html=1;" vertex="1" parent="1">
          <mxGeometry x="420" y="367" width="65" height="30" as="geometry" />
        </mxCell>
        <mxCell id="JF9ftjXbP2cAIOq0KpQJ-14" value="IV&lt;sub&gt;client&lt;/sub&gt;" style="rounded=0;whiteSpace=wrap;html=1;" vertex="1" parent="1">
          <mxGeometry x="485" y="367" width="65" height="30" as="geometry" />
        </mxCell>
        <mxCell id="JF9ftjXbP2cAIOq0KpQJ-15" value="IV&lt;sub&gt;server&lt;/sub&gt;" style="rounded=0;whiteSpace=wrap;html=1;" vertex="1" parent="1">
          <mxGeometry x="550" y="367" width="70" height="30" as="geometry" />
        </mxCell>
        <mxCell id="JF9ftjXbP2cAIOq0KpQJ-16" value="x" style="rounded=0;whiteSpace=wrap;html=1;" vertex="1" parent="1">
          <mxGeometry x="225" y="430" width="20" height="40" as="geometry" />
        </mxCell>
        <mxCell id="JF9ftjXbP2cAIOq0KpQJ-17" value="y" style="rounded=0;whiteSpace=wrap;html=1;" vertex="1" parent="1">
          <mxGeometry x="245" y="430" width="20" height="40" as="geometry" />
        </mxCell>
        <mxCell id="JF9ftjXbP2cAIOq0KpQJ-18" value="z" style="rounded=0;whiteSpace=wrap;html=1;" vertex="1" parent="1">
          <mxGeometry x="265" y="430" width="20" height="40" as="geometry" />
        </mxCell>
        <mxCell id="JF9ftjXbP2cAIOq0KpQJ-19" value="x" style="rounded=0;whiteSpace=wrap;html=1;" vertex="1" parent="1">
          <mxGeometry x="292.5" y="430" width="20" height="40" as="geometry" />
        </mxCell>
        <mxCell id="JF9ftjXbP2cAIOq0KpQJ-20" value="y" style="rounded=0;whiteSpace=wrap;html=1;" vertex="1" parent="1">
          <mxGeometry x="312.5" y="430" width="20" height="40" as="geometry" />
        </mxCell>
        <mxCell id="JF9ftjXbP2cAIOq0KpQJ-21" value="z" style="rounded=0;whiteSpace=wrap;html=1;" vertex="1" parent="1">
          <mxGeometry x="332.5" y="430" width="20" height="40" as="geometry" />
        </mxCell>
        <mxCell id="JF9ftjXbP2cAIOq0KpQJ-22" value="x" style="rounded=0;whiteSpace=wrap;html=1;" vertex="1" parent="1">
          <mxGeometry x="357.5" y="430" width="20" height="40" as="geometry" />
        </mxCell>
        <mxCell id="JF9ftjXbP2cAIOq0KpQJ-23" value="y" style="rounded=0;whiteSpace=wrap;html=1;" vertex="1" parent="1">
          <mxGeometry x="377.5" y="430" width="20" height="40" as="geometry" />
        </mxCell>
        <mxCell id="JF9ftjXbP2cAIOq0KpQJ-24" value="z" style="rounded=0;whiteSpace=wrap;html=1;" vertex="1" parent="1">
          <mxGeometry x="397.5" y="430" width="20" height="40" as="geometry" />
        </mxCell>
        <mxCell id="JF9ftjXbP2cAIOq0KpQJ-25" value="x" style="rounded=0;whiteSpace=wrap;html=1;" vertex="1" parent="1">
          <mxGeometry x="423" y="430" width="20" height="40" as="geometry" />
        </mxCell>
        <mxCell id="JF9ftjXbP2cAIOq0KpQJ-26" value="y" style="rounded=0;whiteSpace=wrap;html=1;" vertex="1" parent="1">
          <mxGeometry x="443" y="430" width="20" height="40" as="geometry" />
        </mxCell>
        <mxCell id="JF9ftjXbP2cAIOq0KpQJ-27" value="z" style="rounded=0;whiteSpace=wrap;html=1;" vertex="1" parent="1">
          <mxGeometry x="463" y="430" width="20" height="40" as="geometry" />
        </mxCell>
        <mxCell id="JF9ftjXbP2cAIOq0KpQJ-28" value="x" style="rounded=0;whiteSpace=wrap;html=1;" vertex="1" parent="1">
          <mxGeometry x="487.5" y="430" width="20" height="40" as="geometry" />
        </mxCell>
        <mxCell id="JF9ftjXbP2cAIOq0KpQJ-29" value="y" style="rounded=0;whiteSpace=wrap;html=1;" vertex="1" parent="1">
          <mxGeometry x="507.5" y="430" width="20" height="40" as="geometry" />
        </mxCell>
        <mxCell id="JF9ftjXbP2cAIOq0KpQJ-30" value="z" style="rounded=0;whiteSpace=wrap;html=1;" vertex="1" parent="1">
          <mxGeometry x="527.5" y="430" width="20" height="40" as="geometry" />
        </mxCell>
        <mxCell id="JF9ftjXbP2cAIOq0KpQJ-31" value="x" style="rounded=0;whiteSpace=wrap;html=1;" vertex="1" parent="1">
          <mxGeometry x="555" y="430" width="20" height="40" as="geometry" />
        </mxCell>
        <mxCell id="JF9ftjXbP2cAIOq0KpQJ-32" value="y" style="rounded=0;whiteSpace=wrap;html=1;" vertex="1" parent="1">
          <mxGeometry x="575" y="430" width="20" height="40" as="geometry" />
        </mxCell>
        <mxCell id="JF9ftjXbP2cAIOq0KpQJ-33" value="z" style="rounded=0;whiteSpace=wrap;html=1;" vertex="1" parent="1">
          <mxGeometry x="595" y="430" width="20" height="40" as="geometry" />
        </mxCell>
        <mxCell id="JF9ftjXbP2cAIOq0KpQJ-34" style="edgeStyle=orthogonalEdgeStyle;rounded=0;orthogonalLoop=1;jettySize=auto;html=1;entryX=0.538;entryY=0.001;entryDx=0;entryDy=0;entryPerimeter=0;" edge="1" parent="1" source="JF9ftjXbP2cAIOq0KpQJ-6" target="JF9ftjXbP2cAIOq0KpQJ-7">
          <mxGeometry relative="1" as="geometry" />
        </mxCell>
        <mxCell id="JF9ftjXbP2cAIOq0KpQJ-35" value="PRF(&quot;Key Expansion&quot;)" style="edgeLabel;html=1;align=center;verticalAlign=middle;resizable=0;points=[];" vertex="1" connectable="0" parent="JF9ftjXbP2cAIOq0KpQJ-34">
          <mxGeometry x="-0.27" relative="1" as="geometry">
            <mxPoint as="offset" />
          </mxGeometry>
        </mxCell>
        <mxCell id="JF9ftjXbP2cAIOq0KpQJ-36" value="" style="endArrow=classic;html=1;rounded=0;exitX=0.088;exitY=0.997;exitDx=0;exitDy=0;exitPerimeter=0;" edge="1" parent="1" source="JF9ftjXbP2cAIOq0KpQJ-7" target="JF9ftjXbP2cAIOq0KpQJ-10">
          <mxGeometry width="50" height="50" relative="1" as="geometry">
            <mxPoint x="320" y="360" as="sourcePoint" />
            <mxPoint x="370" y="310" as="targetPoint" />
          </mxGeometry>
        </mxCell>
        <mxCell id="JF9ftjXbP2cAIOq0KpQJ-46" value="Split" style="edgeLabel;html=1;align=center;verticalAlign=middle;resizable=0;points=[];" vertex="1" connectable="0" parent="JF9ftjXbP2cAIOq0KpQJ-36">
          <mxGeometry x="-0.0876" y="1" relative="1" as="geometry">
            <mxPoint x="-1" y="-2" as="offset" />
          </mxGeometry>
        </mxCell>
        <mxCell id="JF9ftjXbP2cAIOq0KpQJ-38" value="" style="endArrow=classic;html=1;rounded=0;exitX=0.088;exitY=0.997;exitDx=0;exitDy=0;exitPerimeter=0;entryX=0.521;entryY=-0.012;entryDx=0;entryDy=0;entryPerimeter=0;" edge="1" parent="1" target="JF9ftjXbP2cAIOq0KpQJ-11">
          <mxGeometry width="50" height="50" relative="1" as="geometry">
            <mxPoint x="324" y="340" as="sourcePoint" />
            <mxPoint x="324" y="360" as="targetPoint" />
          </mxGeometry>
        </mxCell>
        <mxCell id="JF9ftjXbP2cAIOq0KpQJ-47" value="Split" style="edgeLabel;html=1;align=center;verticalAlign=middle;resizable=0;points=[];" vertex="1" connectable="0" parent="JF9ftjXbP2cAIOq0KpQJ-38">
          <mxGeometry x="-0.4021" y="-1" relative="1" as="geometry">
            <mxPoint y="1" as="offset" />
          </mxGeometry>
        </mxCell>
        <mxCell id="JF9ftjXbP2cAIOq0KpQJ-39" value="" style="endArrow=classic;html=1;rounded=0;exitX=0.088;exitY=0.997;exitDx=0;exitDy=0;exitPerimeter=0;entryX=0.517;entryY=-0.031;entryDx=0;entryDy=0;entryPerimeter=0;" edge="1" parent="1" target="JF9ftjXbP2cAIOq0KpQJ-12">
          <mxGeometry width="50" height="50" relative="1" as="geometry">
            <mxPoint x="389" y="340" as="sourcePoint" />
            <mxPoint x="389" y="360" as="targetPoint" />
          </mxGeometry>
        </mxCell>
        <mxCell id="JF9ftjXbP2cAIOq0KpQJ-48" value="Split" style="edgeLabel;html=1;align=center;verticalAlign=middle;resizable=0;points=[];" vertex="1" connectable="0" parent="JF9ftjXbP2cAIOq0KpQJ-39">
          <mxGeometry x="-0.3793" relative="1" as="geometry">
            <mxPoint y="1" as="offset" />
          </mxGeometry>
        </mxCell>
        <mxCell id="JF9ftjXbP2cAIOq0KpQJ-40" value="" style="endArrow=classic;html=1;rounded=0;exitX=0.088;exitY=0.997;exitDx=0;exitDy=0;exitPerimeter=0;entryX=0.536;entryY=-0.023;entryDx=0;entryDy=0;entryPerimeter=0;" edge="1" parent="1" target="JF9ftjXbP2cAIOq0KpQJ-13">
          <mxGeometry width="50" height="50" relative="1" as="geometry">
            <mxPoint x="455" y="340" as="sourcePoint" />
            <mxPoint x="455" y="360" as="targetPoint" />
          </mxGeometry>
        </mxCell>
        <mxCell id="JF9ftjXbP2cAIOq0KpQJ-49" value="Split" style="edgeLabel;html=1;align=center;verticalAlign=middle;resizable=0;points=[];" vertex="1" connectable="0" parent="JF9ftjXbP2cAIOq0KpQJ-40">
          <mxGeometry x="-0.0884" y="-1" relative="1" as="geometry">
            <mxPoint y="-3" as="offset" />
          </mxGeometry>
        </mxCell>
        <mxCell id="JF9ftjXbP2cAIOq0KpQJ-41" value="" style="endArrow=classic;html=1;rounded=0;exitX=0.088;exitY=0.997;exitDx=0;exitDy=0;exitPerimeter=0;entryX=0.545;entryY=0.004;entryDx=0;entryDy=0;entryPerimeter=0;" edge="1" parent="1" target="JF9ftjXbP2cAIOq0KpQJ-14">
          <mxGeometry width="50" height="50" relative="1" as="geometry">
            <mxPoint x="520" y="340" as="sourcePoint" />
            <mxPoint x="520" y="360" as="targetPoint" />
          </mxGeometry>
        </mxCell>
        <mxCell id="JF9ftjXbP2cAIOq0KpQJ-50" value="Split" style="edgeLabel;html=1;align=center;verticalAlign=middle;resizable=0;points=[];" vertex="1" connectable="0" parent="JF9ftjXbP2cAIOq0KpQJ-41">
          <mxGeometry x="-0.2241" y="1" relative="1" as="geometry">
            <mxPoint as="offset" />
          </mxGeometry>
        </mxCell>
        <mxCell id="JF9ftjXbP2cAIOq0KpQJ-42" value="" style="endArrow=classic;html=1;rounded=0;exitX=0.088;exitY=0.997;exitDx=0;exitDy=0;exitPerimeter=0;entryX=0.586;entryY=-0.028;entryDx=0;entryDy=0;entryPerimeter=0;" edge="1" parent="1" target="JF9ftjXbP2cAIOq0KpQJ-15">
          <mxGeometry width="50" height="50" relative="1" as="geometry">
            <mxPoint x="591" y="340" as="sourcePoint" />
            <mxPoint x="591" y="360" as="targetPoint" />
          </mxGeometry>
        </mxCell>
        <mxCell id="JF9ftjXbP2cAIOq0KpQJ-51" value="Split" style="edgeLabel;html=1;align=center;verticalAlign=middle;resizable=0;points=[];" vertex="1" connectable="0" parent="JF9ftjXbP2cAIOq0KpQJ-42">
          <mxGeometry x="-0.4427" relative="1" as="geometry">
            <mxPoint y="2" as="offset" />
          </mxGeometry>
        </mxCell>
        <mxCell id="JF9ftjXbP2cAIOq0KpQJ-58" style="edgeStyle=orthogonalEdgeStyle;rounded=0;orthogonalLoop=1;jettySize=auto;html=1;entryX=0.5;entryY=0;entryDx=0;entryDy=0;" edge="1" parent="1">
          <mxGeometry relative="1" as="geometry">
            <mxPoint x="322.42" y="397" as="sourcePoint" />
            <mxPoint x="322.42" y="430" as="targetPoint" />
          </mxGeometry>
        </mxCell>
        <mxCell id="JF9ftjXbP2cAIOq0KpQJ-59" value="vec" style="edgeLabel;html=1;align=center;verticalAlign=middle;resizable=0;points=[];" vertex="1" connectable="0" parent="JF9ftjXbP2cAIOq0KpQJ-58">
          <mxGeometry x="-0.6335" relative="1" as="geometry">
            <mxPoint y="4" as="offset" />
          </mxGeometry>
        </mxCell>
        <mxCell id="JF9ftjXbP2cAIOq0KpQJ-60" style="edgeStyle=orthogonalEdgeStyle;rounded=0;orthogonalLoop=1;jettySize=auto;html=1;entryX=0.5;entryY=0;entryDx=0;entryDy=0;" edge="1" parent="1">
          <mxGeometry relative="1" as="geometry">
            <mxPoint x="387.42" y="397" as="sourcePoint" />
            <mxPoint x="387.42" y="430" as="targetPoint" />
          </mxGeometry>
        </mxCell>
        <mxCell id="JF9ftjXbP2cAIOq0KpQJ-61" value="vec" style="edgeLabel;html=1;align=center;verticalAlign=middle;resizable=0;points=[];" vertex="1" connectable="0" parent="JF9ftjXbP2cAIOq0KpQJ-60">
          <mxGeometry x="-0.6335" relative="1" as="geometry">
            <mxPoint y="4" as="offset" />
          </mxGeometry>
        </mxCell>
        <mxCell id="JF9ftjXbP2cAIOq0KpQJ-62" style="edgeStyle=orthogonalEdgeStyle;rounded=0;orthogonalLoop=1;jettySize=auto;html=1;entryX=0.5;entryY=0;entryDx=0;entryDy=0;" edge="1" parent="1">
          <mxGeometry relative="1" as="geometry">
            <mxPoint x="452.92" y="397" as="sourcePoint" />
            <mxPoint x="452.92" y="430" as="targetPoint" />
          </mxGeometry>
        </mxCell>
        <mxCell id="JF9ftjXbP2cAIOq0KpQJ-63" value="vec" style="edgeLabel;html=1;align=center;verticalAlign=middle;resizable=0;points=[];" vertex="1" connectable="0" parent="JF9ftjXbP2cAIOq0KpQJ-62">
          <mxGeometry x="-0.6335" relative="1" as="geometry">
            <mxPoint y="4" as="offset" />
          </mxGeometry>
        </mxCell>
        <mxCell id="JF9ftjXbP2cAIOq0KpQJ-64" style="edgeStyle=orthogonalEdgeStyle;rounded=0;orthogonalLoop=1;jettySize=auto;html=1;entryX=0.5;entryY=0;entryDx=0;entryDy=0;" edge="1" parent="1">
          <mxGeometry relative="1" as="geometry">
            <mxPoint x="517.4200000000001" y="397" as="sourcePoint" />
            <mxPoint x="517.4200000000001" y="430" as="targetPoint" />
          </mxGeometry>
        </mxCell>
        <mxCell id="JF9ftjXbP2cAIOq0KpQJ-65" value="vec" style="edgeLabel;html=1;align=center;verticalAlign=middle;resizable=0;points=[];" vertex="1" connectable="0" parent="JF9ftjXbP2cAIOq0KpQJ-64">
          <mxGeometry x="-0.6335" relative="1" as="geometry">
            <mxPoint y="4" as="offset" />
          </mxGeometry>
        </mxCell>
        <mxCell id="JF9ftjXbP2cAIOq0KpQJ-66" style="edgeStyle=orthogonalEdgeStyle;rounded=0;orthogonalLoop=1;jettySize=auto;html=1;entryX=0.5;entryY=0;entryDx=0;entryDy=0;" edge="1" parent="1">
          <mxGeometry relative="1" as="geometry">
            <mxPoint x="584.9200000000001" y="397" as="sourcePoint" />
            <mxPoint x="584.9200000000001" y="430" as="targetPoint" />
          </mxGeometry>
        </mxCell>
        <mxCell id="JF9ftjXbP2cAIOq0KpQJ-67" value="vec" style="edgeLabel;html=1;align=center;verticalAlign=middle;resizable=0;points=[];" vertex="1" connectable="0" parent="JF9ftjXbP2cAIOq0KpQJ-66">
          <mxGeometry x="-0.6335" relative="1" as="geometry">
            <mxPoint y="4" as="offset" />
          </mxGeometry>
        </mxCell>
      </root>
    </mxGraphModel>
  </diagram>
</mxfile>
